<?xml version="1.0" standalone="no"?>
<!DOCTYPE svg PUBLIC "-//W3C//DTD SVG 20010904//EN"
 "http://www.w3.org/TR/2001/REC-SVG-20010904/DTD/svg10.dtd">
<svg version="1.0" xmlns="http://www.w3.org/2000/svg"
 width="512.000000pt" height="512.000000pt" viewBox="0 0 512.000000 512.000000"
 preserveAspectRatio="xMidYMid meet">

<g transform="translate(0.000000,512.000000) scale(0.100000,-0.100000)"
fill="#000000" stroke="none">
<path d="M3665 4372 c-48 -23 -95 -73 -166 -178 -69 -104 -81 -118 -220 -261
l-119 -123 -47 19 c-125 49 -197 56 -563 55 -318 0 -353 -2 -449 -23 -57 -12
-120 -30 -140 -40 l-35 -19 -56 47 c-30 26 -81 65 -112 87 -31 22 -111 91
-178 154 -151 142 -218 193 -298 225 -69 28 -96 30 -129 12 -45 -26 -98 -118
-144 -256 -39 -114 -38 -150 11 -551 12 -94 47 -237 61 -246 5 -3 9 -29 9 -57
0 -69 32 -182 60 -212 17 -18 20 -27 11 -43 -18 -34 -29 -98 -76 -457 -50
-377 -52 -439 -17 -533 25 -64 96 -182 170 -280 l55 -73 -31 -57 c-36 -69 -78
-184 -98 -270 -21 -91 -8 -127 81 -217 103 -106 254 -227 357 -286 81 -46 233
-121 293 -144 350 -131 793 -154 1142 -60 87 24 249 82 290 104 10 5 52 26 93
47 154 76 350 222 464 345 71 76 90 118 83 179 -7 61 -57 209 -99 298 l-35 73
34 37 c19 20 48 61 65 90 16 29 41 66 54 81 13 16 39 60 57 98 l32 68 -1 160
c-1 90 -8 206 -17 265 -9 58 -25 166 -36 241 -11 75 -30 179 -41 231 -21 92
-21 98 -4 149 11 36 18 97 20 181 2 71 8 145 13 165 6 21 18 90 27 153 26 180
5 402 -57 605 -35 114 -74 182 -120 209 -46 27 -144 32 -194 8z m79 -42 c-28
-4 -61 -13 -75 -19 l-24 -12 24 20 c17 16 36 21 75 20 l51 -1 -51 -8z m102
-22 c19 -23 19 -23 -1 -7 -11 9 -27 19 -35 22 -13 5 -13 6 1 6 9 1 24 -9 35
-21z m-2551 -53 c39 -19 86 -48 105 -65 41 -36 33 -39 -18 -5 -42 28 -163 75
-192 75 -29 0 -66 -56 -88 -135 -38 -131 -39 -157 -3 -87 51 98 131 133 214
93 108 -52 248 -201 322 -342 44 -84 44 -95 0 -44 -36 42 -46 35 -20 -15 24
-46 1 -39 -101 28 -109 72 -294 176 -300 169 -3 -3 32 -24 77 -48 85 -46 100
-62 61 -67 -12 -2 -20 -7 -17 -12 3 -4 -2 -13 -10 -20 -11 -9 -22 -9 -46 -1
-18 6 -34 9 -37 7 -2 -3 7 -8 22 -12 32 -8 32 -14 -1 -71 -21 -36 -27 -59 -27
-107 0 -71 27 -131 119 -258 l55 -76 -32 -12 -33 -13 40 -9 c22 -5 46 -9 53
-10 20 -2 14 -11 -40 -65 -59 -56 -88 -73 -166 -97 l-53 -15 -15 35 c-8 19
-17 49 -20 67 -5 30 -4 29 15 -10 11 -24 23 -43 27 -43 3 0 4 24 2 53 -3 38
-14 69 -41 113 -21 33 -45 93 -57 137 -21 84 -55 363 -53 437 1 25 2 80 2 122
1 78 32 188 52 188 6 0 7 4 4 10 -8 13 32 90 47 90 6 0 8 3 5 7 -12 12 26 43
52 43 15 0 58 -16 96 -35z m2284 -60 c-34 -47 -65 -88 -70 -91 -13 -8 66 114
95 149 47 53 35 26 -25 -58z m265 -46 c44 -38 89 -132 122 -257 47 -173 32
-398 -37 -570 -28 -70 -47 -152 -36 -152 3 0 15 15 26 33 24 35 24 37 6 -48
-9 -40 -69 -49 -129 -18 -36 19 -156 130 -148 137 3 3 26 6 52 6 64 0 72 13
14 25 l-47 11 71 73 c39 40 81 93 93 119 42 87 36 182 -17 265 l-25 37 28 25
28 25 -38 -17 c-28 -13 -40 -14 -49 -5 -17 17 -7 23 56 29 31 3 59 10 63 16 6
10 -47 7 -159 -9 l-43 -5 27 23 c15 13 42 34 59 48 18 13 27 26 21 28 -12 4
-108 -60 -162 -108 -37 -33 -134 -104 -185 -136 -30 -18 -30 -18 -13 2 17 20
48 86 48 101 -1 4 -15 -8 -32 -27 l-30 -35 6 28 c26 111 98 232 183 305 73 63
109 81 165 82 39 0 54 -5 82 -31z m-366 -91 c-12 -18 -72 -85 -133 -148 -60
-63 -122 -131 -136 -150 -15 -19 -30 -32 -33 -29 -10 10 66 99 142 166 38 34
93 92 122 128 57 69 76 86 38 33z m-1708 -194 c0 -2 -9 0 -20 6 -11 6 -20 13
-20 16 0 2 9 0 20 -6 11 -6 20 -13 20 -16z m893 -31 c-35 -2 -91 -2 -125 0
-35 2 -7 3 62 3 69 0 97 -1 63 -3z m-428 -14 c-44 -5 -125 -21 -179 -34 -98
-25 -141 -28 -71 -5 72 24 211 49 270 48 60 -1 59 -1 -20 -9z m780 -14 c54
-14 105 -30 114 -36 19 -12 9 -10 -94 20 -38 12 -106 25 -150 30 -77 8 -78 8
-24 10 33 0 99 -10 154 -24z m459 -135 c-8 -37 5 -38 36 -5 42 44 58 20 19
-29 -12 -15 -19 -30 -15 -33 3 -3 35 4 72 16 71 25 91 23 49 -5 -18 -12 -23
-20 -16 -27 19 -19 12 -39 -26 -74 -31 -30 -34 -36 -21 -44 10 -6 16 -21 16
-39 -1 -23 -7 -31 -31 -40 -48 -16 -60 -12 -107 36 -25 25 -66 61 -92 80 l-47
35 47 48 c26 26 59 62 73 79 34 41 50 41 43 2z m-1814 -13 c8 -7 28 -30 45
-52 16 -22 40 -48 52 -58 l23 -19 -37 -27 c-21 -15 -62 -53 -92 -84 -30 -32
-61 -57 -68 -57 -7 0 -31 7 -52 16 -40 16 -40 16 -24 41 16 24 16 26 -8 45
l-24 20 27 -16 c16 -9 29 -12 33 -6 3 5 -7 16 -23 24 -34 18 -46 50 -26 71 12
12 12 16 -4 27 -10 7 -22 19 -27 27 -6 11 -4 13 11 7 35 -14 127 -36 132 -32
2 2 -4 16 -13 30 -24 37 -15 52 17 27 34 -27 40 -26 28 4 -11 28 4 34 30 12z
m155 -157 c-4 -6 -32 -26 -63 -46 -31 -20 -73 -50 -93 -68 -19 -17 -9 -5 23
26 32 32 75 66 96 77 44 24 45 24 37 11z m1805 -5 c-7 -8 -20 -15 -29 -15 -11
1 -8 5 9 15 32 18 35 18 20 0z m-1371 -220 c42 -23 56 -38 78 -84 24 -48 27
-67 28 -150 0 -107 -9 -132 -72 -202 -20 -22 -33 -42 -30 -45 3 -3 25 6 50 20
52 31 78 32 135 6 30 -14 51 -34 74 -70 17 -27 36 -50 43 -50 6 0 26 22 44 49
21 33 46 56 74 70 54 26 77 26 127 1 61 -31 65 -24 20 28 -58 64 -70 98 -70
189 0 143 29 199 124 244 121 57 240 27 292 -74 8 -15 18 -57 21 -92 6 -63 6
-65 42 -76 105 -33 161 -95 181 -200 15 -76 51 -126 113 -155 44 -20 67 -24
152 -24 128 0 162 -10 224 -66 72 -65 96 -123 115 -274 32 -256 15 -335 -118
-530 -100 -148 -235 -265 -418 -364 -118 -63 -358 -154 -528 -200 -72 -19 -29
-20 63 -1 40 8 79 14 87 13 29 -2 53 2 47 8 -4 4 24 17 61 30 78 28 72 27 72
13 0 -5 -5 -7 -12 -3 -6 4 -8 3 -4 -4 3 -6 18 -9 31 -6 20 3 25 0 25 -16 0
-16 -7 -20 -35 -20 -19 0 -35 -2 -35 -4 0 -2 -3 -11 -6 -20 -5 -13 2 -16 41
-16 42 0 47 -2 42 -20 -3 -11 -1 -20 4 -20 19 0 7 -22 -21 -38 -28 -16 -44
-40 -17 -27 6 4 3 -2 -8 -12 -23 -22 -41 -48 -55 -81 -5 -13 -15 -20 -21 -17
-6 4 -9 0 -7 -11 2 -13 -3 -19 -14 -18 -14 1 -15 -2 -8 -16 8 -14 4 -26 -17
-51 -16 -18 -27 -40 -25 -48 1 -9 -11 -31 -27 -50 -17 -19 -27 -39 -24 -44 3
-6 1 -7 -5 -3 -6 3 -13 -3 -17 -14 -3 -11 -11 -20 -16 -20 -5 0 -8 -5 -7 -12
2 -7 -3 -13 -9 -14 -7 -1 -18 -2 -24 -3 -5 0 -7 -5 -4 -11 3 -5 0 -10 -7 -10
-8 0 -20 -9 -28 -20 -14 -19 -37 -29 -26 -12 3 5 -2 9 -10 9 -8 0 -13 -6 -10
-13 10 -25 -119 -39 -354 -39 -219 1 -340 13 -340 36 0 13 17 11 26 -2 3 -6
19 -9 35 -7 15 3 26 1 23 -4 -3 -4 5 -8 18 -8 l22 0 -22 16 c-13 9 -31 13 -43
9 -11 -4 -26 -2 -33 5 -8 6 -20 9 -27 8 -8 -2 -13 3 -11 10 1 6 -4 12 -12 12
-7 0 -25 11 -40 25 -14 13 -26 19 -26 13 0 -6 -13 6 -30 27 -16 21 -30 46 -30
56 0 11 -5 19 -10 19 -7 0 -7 6 0 19 8 17 7 19 -9 16 -22 -4 -34 17 -24 42 4
10 2 14 -5 9 -12 -7 -35 27 -25 38 3 3 1 6 -6 6 -9 0 -12 9 -9 24 3 16 1 23
-7 20 -6 -3 -20 5 -31 17 -12 14 -13 19 -4 14 12 -6 12 -5 -1 9 -16 18 -15 66
2 66 5 0 9 9 9 20 0 17 7 20 50 20 43 0 50 3 50 20 0 13 7 20 20 20 11 0 20 4
20 8 0 18 57 36 110 34 54 -1 54 -1 -30 18 -150 33 -483 161 -605 233 -190
111 -334 269 -441 482 -49 100 -58 166 -39 312 29 220 32 234 71 290 66 97
126 123 277 123 82 0 109 4 144 21 65 31 99 79 118 167 15 66 23 80 64 121 29
29 65 53 97 64 l52 18 4 62 c5 89 32 135 99 170 47 25 62 28 115 24 42 -3 78
-14 113 -32z m-952 -1832 c-3 -21 -11 -67 -16 -103 -16 -97 -14 -182 5 -208 8
-12 12 -22 7 -22 -4 0 1 -7 11 -15 11 -8 15 -15 10 -15 -12 0 -64 55 -87 92
-21 34 -21 63 -2 142 31 121 86 221 72 129z m2089 -108 c-11 -8 -23 -15 -27
-15 -4 0 -5 -9 -2 -21 5 -17 2 -20 -18 -17 -36 5 -29 27 16 48 49 23 56 24 31
5z m-1466 -159 c0 -8 -4 -18 -10 -21 -5 -3 -10 3 -10 14 0 12 5 21 10 21 6 0
10 -6 10 -14z m50 -9 c10 -4 8 -6 -7 -6 -16 -1 -23 5 -23 17 0 10 3 13 8 6 4
-6 14 -14 22 -17z m-96 -23 c3 -8 2 -12 -4 -9 -6 3 -10 10 -10 16 0 14 7 11
14 -7z m37 -81 c13 -16 12 -17 -3 -4 -17 13 -22 21 -14 21 2 0 10 -8 17 -17z"/>
<path d="M2099 2960 l44 -40 -36 15 c-74 31 -180 14 -222 -36 l-20 -23 28 21
c68 52 169 51 267 -3 l45 -25 -30 26 -30 26 28 -11 c53 -19 62 -10 12 14 -27
12 -64 35 -81 49 -50 42 -54 31 -5 -13z"/>
<path d="M3015 2980 c-10 -11 -46 -34 -79 -51 -51 -26 -55 -30 -27 -25 l34 6
-19 -21 c-15 -17 -6 -14 41 12 77 44 164 48 234 11 28 -15 40 -18 32 -9 -39
48 -161 62 -241 27 -37 -16 -41 -16 -20 -2 42 29 86 71 74 72 -6 0 -19 -9 -29
-20z"/>
<path d="M1966 2899 c-54 -13 -101 -44 -125 -82 -25 -41 -43 -120 -35 -152 8
-34 114 -93 193 -107 59 -11 66 -10 180 27 l119 39 -19 55 c-24 68 -59 128
-96 163 -52 50 -145 74 -217 57z m142 -106 c3 -27 -1 -35 -22 -45 -22 -9 -29
-8 -46 7 -38 35 -17 78 35 73 26 -3 30 -8 33 -35z m100 -76 c24 -65 15 -85
-45 -105 l-31 -10 24 35 c20 30 30 73 25 106 0 4 3 7 7 7 4 0 13 -15 20 -33z
m-323 -68 c8 -12 6 -12 -8 0 -10 8 -17 26 -16 45 l1 31 7 -31 c4 -17 12 -37
16 -45z"/>
<path d="M3028 2897 c-100 -28 -153 -94 -202 -253 -6 -19 4 -24 109 -58 140
-46 183 -44 296 12 74 37 74 37 77 81 4 49 -18 115 -50 156 -45 57 -147 84
-230 62z m140 -73 c27 -19 28 -45 2 -69 -17 -15 -24 -16 -45 -7 -30 14 -35 65
-7 81 23 14 24 14 50 -5z m-214 -182 c9 -18 15 -32 13 -32 -2 0 -18 5 -36 11
-38 13 -44 49 -18 114 l12 30 6 -46 c4 -25 14 -60 23 -77z m306 58 c0 -15 -23
-60 -30 -60 -4 0 -2 16 4 35 10 32 26 48 26 25z"/>
<path d="M2431 2435 c-30 -9 -73 -26 -95 -38 l-41 -23 1 -65 c1 -115 68 -194
200 -236 l55 -17 -3 -70 -3 -71 -65 -23 c-91 -32 -195 -26 -307 17 -65 26 -88
40 -117 76 -20 24 -36 54 -36 67 0 13 -7 34 -16 46 -13 18 -13 26 -3 38 9 11
9 18 1 26 -7 7 -23 0 -56 -27 -52 -42 -57 -55 -21 -55 17 0 29 -9 39 -28 8
-16 33 -52 56 -81 46 -59 141 -112 234 -131 l52 -11 13 -60 c10 -52 20 -68 64
-114 105 -108 244 -107 359 2 26 25 43 55 58 104 17 51 27 69 40 69 37 0 147
41 201 75 47 29 63 47 94 106 25 47 41 69 51 65 7 -3 16 0 20 5 7 13 -64 89
-83 89 -15 0 -18 -36 -3 -45 7 -4 5 -14 -5 -27 -8 -12 -12 -31 -9 -43 13 -53
-73 -122 -209 -166 -78 -25 -167 -23 -254 7 -53 17 -53 17 -53 59 0 23 -3 56
-6 72 -5 28 -3 30 38 42 142 41 219 142 206 271 -3 38 -42 71 -107 91 -62 19
-229 21 -290 4z m251 -52 c10 -10 -11 -13 -105 -13 -64 0 -117 2 -117 5 0 26
197 32 222 8z m16 -539 c45 -10 82 -24 82 -30 0 -23 -31 -98 -48 -118 -9 -10
-37 -32 -61 -48 -80 -50 -204 -35 -268 34 -27 29 -53 89 -53 123 0 21 5 25 28
25 15 0 52 7 82 15 71 19 67 20 75 -15 7 -34 25 -31 25 4 0 29 10 39 35 33 11
-3 57 -13 103 -23z"/>
<path d="M2814 1513 c-77 -52 -136 -65 -274 -61 -109 3 -133 7 -190 31 -36 16
-72 31 -80 34 -28 12 24 -38 65 -62 60 -35 118 -47 232 -47 132 0 186 18 256
83 57 53 52 64 -9 22z"/>
<path d="M3050 1220 c-8 -5 -10 -10 -5 -10 6 0 17 5 25 10 8 5 11 10 5 10 -5
0 -17 -5 -25 -10z"/>
<path d="M2872 634 c-15 -16 -18 -24 -9 -24 17 0 51 36 40 43 -4 2 -18 -6 -31
-19z"/>
</g>
</svg>
